<svg width="22" height="23" viewBox="0 0 22 23" fill="none" xmlns="http://www.w3.org/2000/svg">
<path d="M21.7463 1.70917L12.6017 21.661C12.5252 21.8281 12.3955 21.9652 12.2328 22.0507C12.0701 22.1363 11.8836 22.1655 11.7026 22.1338C11.5215 22.1021 11.3561 22.0113 11.2321 21.8756C11.1081 21.7399 11.0326 21.5669 11.0174 21.3838L10.2443 12.1089L0.969412 11.3358C0.786232 11.3205 0.61326 11.245 0.477548 11.1211C0.341836 10.9971 0.251038 10.8316 0.219354 10.6506C0.18767 10.4695 0.216886 10.2831 0.302434 10.1204C0.387982 9.95769 0.525038 9.82794 0.692165 9.75142L20.644 0.606834C20.7982 0.536147 20.9704 0.514347 21.1374 0.544362C21.3044 0.574376 21.4582 0.654767 21.5782 0.77474C21.6981 0.894713 21.7785 1.04852 21.8086 1.21551C21.8386 1.3825 21.8168 1.55468 21.7461 1.70892L21.7463 1.70917Z" fill="#080809"/>
</svg>
